<svg 
  viewBox="0 0 100 100" 
  fill="none" 
  stroke="#7595DC" 
  stroke-width="4" 
  stroke-linecap="round" 
  stroke-linejoin="round"
  xmlns="http://www.w3.org/2000/svg"
>
  <!-- Gear Shape -->
  <path d="M50 15 L55 5 L65 8 L65 18 M75 25 L85 20 L90 30 L80 35 M85 50 L95 55 L92 65 L82 65 M75 75 L80 85 L70 90 L65 80 M50 85 L45 95 L35 92 L35 82 M25 75 L15 80 L10 70 L20 65 M15 50 L5 45 L8 35 L18 35 M25 25 L20 15 L30 10 L35 20" />
  <circle cx="50" cy="50" r="22" />
  <!-- Wrench Shape -->
  <path d="M50 38 V62 M44 42 L50 38 L56 42 M44 65 H56" stroke-width="6" />
  <circle cx="50" cy="65" r="5" fill="#7595DC" />
</svg>
